<svg xmlns="http://www.w3.org/2000/svg" viewBox="0 0 100 100" style="stroke-width:3">
    <path
        style="fill:none;stroke:#008000;stroke-linecap:round;"
        d="M 20,95 A 29,29 0 0 1 50,65 29,29 0 0 1 80,95"/>
    <ellipse
        style="fill:none;stroke:#008000;"
        cx="27.5"
        cy="17"
        rx="12"
        ry="12" />
    <ellipse
        style="fill:none;stroke:#008000;"
        cx="72.5"
        cy="17"
        rx="12"
        ry="12" />
    <ellipse
        style="fill:none;stroke:#008000;"
        cx="50"
        cy="50"
        rx="15"
        ry="15" />
    <path
       style="fill:none;stroke:#008000;stroke-linecap:round;"
       d="M 5,50 A 22,22 0 0 1 20,30.8 22,22 0 0 1 44,36" />
    <path
       style="fill:none;stroke:#008000;stroke-linecap:round;"
       d="M 56,36 A 22,22 0 0 1 80,30.8 22,22 0 0 1 95,50" />
</svg>